# xmcd
#
# Track frame offsets:
#	150
#	15752
#	37729
#	53556
#	66233
#	77860
#	95712
#	114914
#	134341
#	147993
#	163295
#	179347
#	192549
#	214676
#	231403
#
# Disc length: 3247
#
# Revision: 2
# Processed by: cddbd v1.5.1PL0 Copyright (c) Steve Scherf et al.
# Submitted via: OrangeCD 5.1
# Normalized: r1:DSETVAR1
#
DISCID=cf0cad0f
DTITLE=Various Artist - Line Dance The Ultimate Collection
DYEAR=1994
DGENRE=Other
TTITLE0=Ricky Lynn Gregg - Bring On The Neon
TTITLE1=Charlie Daniels - Tennessee Two Step
TTITLE2=Billy Dean - Hammer Down
TTITLE3=John Anderson - Tryin' To Make A Living On The Road
TTITLE4=Chris LeDoux (With Garth Brooks) - Whatcha Gonna Do With A Cowboy
TTITLE5=Pirates of The Mississippi - Pop From The Top
TTITLE6=Chris LeDoux - Cadillac Ranch
TTITLE7=Ricky Lynn Gregg - If I Had A Cheatin' Heart
TTITLE8=Pirates Of The Mississippi - Honky Tonk Blues
TTITLE9=Palamino Road - Why Baby Why
TTITLE10=Ricky Lynn Gregg - Three Nickles And A Dime
TTITLE11=Chris LeDoux - Cowboys Like A Little Rock And Roll
TTITLE12=Ronnie Milsap - True Believer
TTITLE13=Dan Seals - Bop
TTITLE14=Highway 101 - Fastest Healin' Broken Heart
EXTD=
EXTT0=
EXTT1=
EXTT2=
EXTT3=
EXTT4=
EXTT5=
EXTT6=
EXTT7=
EXTT8=
EXTT9=
EXTT10=
EXTT11=
EXTT12=
EXTT13=
EXTT14=
PLAYORDER=
